<?xml version="1.0" encoding="UTF-8"?>
<svg xmlns="http://www.w3.org/2000/svg" style="stroke-dasharray:none; shape-rendering:auto; font-family:'Arial'; text-rendering:auto; fill-opacity:1; color-interpolation:auto; color-rendering:auto; font-size:12; fill:black; stroke:black; image-rendering:auto; stroke-miterlimit:10; stroke-linecap:square; stroke-linejoin:miter; font-style:normal; stroke-width:1; stroke-dashoffset:0; font-weight:normal; stroke-opacity:1;" contentScriptType="text/ecmascript" preserveAspectRatio="xMidYMid meet" zoomAndPan="magnify" version="1.0" contentStyleType="text/css" xml:xlink="http://www.w3.org/1999/xlink" width="1461" height="1031"><rect x="30" y="360" width="1261" height="231" ry="0" rx="0" style="stroke:#000000; fill:#C0C7CC" /><rect x="30" y="150" width="1261" height="211" ry="0" rx="0" style="stroke:#000000; fill:#DFDFDF" /><g sequence="3"><ellipse cx="127" cy="475" rx="17" ry="17" stroke-width="1" style="fill:url(#linearGradient66FF6696FF96B6FFB6_1466715058);" stroke="336633" /></g><g sequence="4"><rect x="870" y="440" width="106" height="70" ry="5" rx="5" style="fill:url(#linearGradientF8FBFEEDF5FCDEEDFAD4E7F8E2E5E9_1504427823);" stroke="191970" /></g><g componentSequence="4"><text x="923" y="455" text-anchor="middle" style="font-weight:bold;font-size:10px;stroke:none; fill:#333399"><tspan dy="14" x="923">Aprovar</tspan><tspan dy="14" x="923">avaliação</tspan></text></g><g sequence="5"><polygon points=" 1070 454 1100 424 1130 454 1100 484 1070 454" style="fill:url(#linearGradientFAFBFCFFFFCC_1569988802);" stroke="000000" /></g><g componentSequence="5"><text x="1100" y="494" text-anchor="middle" style="font-weight:bold;font-size:10px;stroke:none; fill:#333399"><tspan dy="14" x="1100">Aprovad</tspan><tspan dy="14" x="1100">a?</tspan></text></g><g sequence="6"><ellipse cx="1217" cy="475" rx="17" ry="17" stroke-width="3" style="fill:url(#linearGradientFF6666FF9696FFB6B6_412529940);" stroke="993333" /></g><g sequence="7"><rect x="560" y="240" width="106" height="70" ry="5" rx="5" style="fill:url(#linearGradientF8FBFEEDF5FCDEEDFAD4E7F8E2E5E9_764562543);" stroke="191970" /></g><g componentSequence="7"><text x="613" y="255" text-anchor="middle" style="font-weight:bold;font-size:10px;stroke:none; fill:#333399"><tspan dy="14" x="613">Avaliar</tspan><tspan dy="14" x="613">treinamento</tspan></text></g><g sequence="8"><polygon points=" 210 447 240 417 270 447 240 477 210 447" style="fill:url(#linearGradientFAFBFCFFFFCC_692374581);" stroke="000000" /></g><g componentSequence="8"><text x="240" y="487" text-anchor="middle" style="font-weight:bold;font-size:10px;stroke:none; fill:#333399"><tspan dy="14" x="240">Abertura</tspan><tspan dy="14" x="240">automáti</tspan><tspan dy="14" x="240">ca?</tspan></text></g><g sequence="9"><rect x="380" y="440" width="106" height="70" ry="5" rx="5" style="fill:url(#linearGradientF8FBFEEDF5FCDEEDFAD4E7F8E2E5E9_1437232111);" stroke="191970" /></g><g componentSequence="9"><text x="433" y="455" text-anchor="middle" style="font-weight:bold;font-size:10px;stroke:none; fill:#333399"><tspan dy="14" x="433">Atribuir</tspan><tspan dy="14" x="433">avaliador</tspan></text></g><g sequence="10"><polygon points=" 583 454 613 424 643 454 613 484 583 454" style="fill:url(#linearGradientFAFBFCFFFFCC_2025409115);" stroke="000000" /></g><g componentSequence="10"><text x="613" y="494" text-anchor="middle" style="font-weight:bold;font-size:10px;stroke:none; fill:#333399"><tspan dy="14" x="613">Participo</tspan><tspan dy="14" x="613">u?</tspan></text></g><g sequence="11"><ellipse cx="737" cy="475" rx="17" ry="17" stroke-width="3" style="fill:url(#linearGradientFF6666FF9696FFB6B6_1199013911);" stroke="993333" /></g><g sequence="11"><polygon points=" 728 471 733 466 738 471 743 466 748 471 743 476 748 481 743 486 738 481 733 486 728 481 733 476" style="stroke:none; fill:#993333" /></g><g componentSequence="11"><text x="1033" y="475" style="font-size:10px;font-weight:none;stroke:none; fill:#333399" text-anchor="left" /></g><g componentSequence="28"><text x="958" y="195" style="font-size:10px;font-weight:none;stroke:none; fill:#333399" text-anchor="left" /></g><g componentSequence="30"><text x="339" y="274" style="font-size:10px;font-weight:none;stroke:none; fill:#333399" text-anchor="left" /></g><g componentSequence="32"><text x="335" y="475" style="font-size:10px;font-weight:none;stroke:none; fill:#333399" text-anchor="left" /></g><g componentSequence="34"><text x="187" y="475" style="font-size:10px;font-weight:none;stroke:none; fill:#333399" text-anchor="left" /></g><g componentSequence="36"><text x="544" y="475" style="font-size:10px;font-weight:none;stroke:none; fill:#333399" text-anchor="left" /></g><g componentSequence="38"><text x="691" y="475" style="font-size:10px;font-weight:none;stroke:none; fill:#333399" text-anchor="left" /></g><g componentSequence="39"><text x="623" y="367" style="font-size:10px;font-weight:none;stroke:none; fill:#333399" text-anchor="left" /></g><g componentSequence="40"><text x="886" y="275" style="font-size:10px;font-weight:none;stroke:none; fill:#333399" text-anchor="left" /></g><g componentSequence="46"><text x="1205" y="822" style="font-size:10px;font-weight:none;stroke:none; fill:#333399" text-anchor="left" /></g><g componentSequence="48"><text x="1111" y="591" style="font-size:10px;font-weight:none;stroke:none; fill:#333399" text-anchor="left" /></g><g componentSequence="50"><text x="1202" y="697" style="font-size:10px;font-weight:none;stroke:none; fill:#333399" text-anchor="left" /></g><g componentSequence="47"><text x="909" y="802" style="font-size:10px;font-weight:none;stroke:none; fill:#333399" text-anchor="left" /></g><path style="fill:none; stroke:#000000;stroke-width:1" d="M145.0 475.0 L209.0 475.0" /><polygon style="fill:#000000; stroke:#000000;" points=" 199 470 209 475 199 480 201 475" /><path style="fill:none; stroke:#000000;stroke-width:1" d="M976.0 475.0 L1069.0 475.0" /><polygon style="fill:#000000; stroke:#000000;" points=" 1059 470 1069 475 1059 480 1061 475" /><path style="fill:none; stroke:#000000;stroke-width:1" d="M666.0 275.0 L922.0 275.0 L922.0 439.0" /><polygon style="fill:#000000; stroke:#000000;" points=" 927 429 922 439 917 429 922 431" /><path style="fill:none; stroke:#000000;stroke-width:1" d="M1099.0 423.0 L1099.0 195.0 L613.0 195.0 L613.0 239.0" /><polygon style="fill:#000000; stroke:#000000;" points=" 618 229 613 239 608 229 613 231" /><path style="fill:none; stroke:#000000;stroke-width:1" d="M240.0 416.0 L240.0 274.0 L559.0 274.0" /><polygon style="fill:#000000; stroke:#000000;" points=" 549 269 559 274 549 279 551 274" /><path style="fill:none; stroke:#000000;stroke-width:1" d="M613.0 423.0 L613.0 310.0" /><polygon style="fill:#000000; stroke:#000000;" points=" 608 320 613 310 618 320 613 318" /><path style="fill:none; stroke:#000000;stroke-width:1" d="M270.0 475.0 L379.0 475.0" /><polygon style="fill:#000000; stroke:#000000;" points=" 369 470 379 475 369 480 371 475" /><path style="fill:none; stroke:#000000;stroke-width:1" d="M486.0 475.0 L582.0 475.0" /><polygon style="fill:#000000; stroke:#000000;" points=" 572 470 582 475 572 480 574 475" /><path style="fill:none; stroke:#000000;stroke-width:1" d="M643.0 475.0 L719.0 475.0" /><polygon style="fill:#000000; stroke:#000000;" points=" 709 470 719 475 709 480 711 475" /><path style="fill:none; stroke:#000000;stroke-width:1" d="M1156.0 734.0 L1195.0 734.0 L1195.0 908.0 L1155.0 908.0" /><polygon style="fill:#000000; stroke:#000000;" points=" 1165 913 1155 908 1165 903 1163 908" /><path style="fill:none; stroke:#000000;stroke-width:1" d="M1049.0 907.0 L899.0 907.0 L899.0 697.0 L1049.0 697.0" /><polygon style="fill:#000000; stroke:#000000;" points=" 1039 692 1049 697 1039 702 1041 697" /><path style="fill:none; stroke:#000000;stroke-width:1" d="M1100.0 526.0 L1102.0 655.0" /><polygon style="fill:#000000; stroke:#000000;" points=" 1107 645 1102 655 1097 645 1102 647" /><path style="fill:none; stroke:#000000;stroke-width:1" d="M1155.0 697.0 L1230.0 697.0" /><polygon style="fill:#000000; stroke:#000000;" points=" 1220 692 1230 697 1220 702 1222 697" /><defs><linearGradient xmlns:xlink="http://www.w3.org/1999/xlink" xlink:href="#linearGradient66FF6696FF96B6FFB6" id="linearGradient66FF6696FF96B6FFB6_1466715058" x1="0" y1="458.0" x2="0" y2="493.0" gradientUnits="userSpaceOnUse" xlink:type="simple" xlink:actuate="onLoad" xlink:show="other" /><linearGradient id="linearGradient66FF6696FF96B6FFB6"><stop style="stop-color:#66FF66;stop-opacity:1;" offset="0.0" id="stop66FF66" /><stop style="stop-color:#96FF96;stop-opacity:1;" offset="0.5" id="stop96FF96" /><stop style="stop-color:#B6FFB6;stop-opacity:1;" offset="1.0" id="stopB6FFB6" /></linearGradient><linearGradient xmlns:xlink="http://www.w3.org/1999/xlink" xlink:href="#linearGradientF8FBFEEDF5FCDEEDFAD4E7F8E2E5E9" id="linearGradientF8FBFEEDF5FCDEEDFAD4E7F8E2E5E9_1504427823" x1="0" y1="440.0" x2="0" y2="546.0" gradientUnits="userSpaceOnUse" xlink:type="simple" xlink:actuate="onLoad" xlink:show="other" /><linearGradient id="linearGradientF8FBFEEDF5FCDEEDFAD4E7F8E2E5E9"><stop style="stop-color:#F8FBFE;stop-opacity:1;" offset="0.0" id="stopF8FBFE" /><stop style="stop-color:#EDF5FC;stop-opacity:1;" offset="0.25" id="stopEDF5FC" /><stop style="stop-color:#DEEDFA;stop-opacity:1;" offset="0.5" id="stopDEEDFA" /><stop style="stop-color:#D4E7F8;stop-opacity:1;" offset="0.75" id="stopD4E7F8" /><stop style="stop-color:#E2E5E9;stop-opacity:1;" offset="1.0" id="stopE2E5E9" /></linearGradient><linearGradient xmlns:xlink="http://www.w3.org/1999/xlink" xlink:href="#linearGradientFAFBFCFFFFCC" id="linearGradientFAFBFCFFFFCC_1569988802" x1="0" y1="424.0" x2="0" y2="484.0" gradientUnits="userSpaceOnUse" xlink:type="simple" xlink:actuate="onLoad" xlink:show="other" /><linearGradient id="linearGradientFAFBFCFFFFCC"><stop style="stop-color:#FAFBFC;stop-opacity:1;" offset="0.0" id="stopFAFBFC" /><stop style="stop-color:#FFFFCC;stop-opacity:1;" offset="1.0" id="stopFFFFCC" /></linearGradient><linearGradient xmlns:xlink="http://www.w3.org/1999/xlink" xlink:href="#linearGradientFF6666FF9696FFB6B6" id="linearGradientFF6666FF9696FFB6B6_412529940" x1="0" y1="458.0" x2="0" y2="493.0" gradientUnits="userSpaceOnUse" xlink:type="simple" xlink:actuate="onLoad" xlink:show="other" /><linearGradient id="linearGradientFF6666FF9696FFB6B6"><stop style="stop-color:#FF6666;stop-opacity:1;" offset="0.0" id="stopFF6666" /><stop style="stop-color:#FF9696;stop-opacity:1;" offset="0.5" id="stopFF9696" /><stop style="stop-color:#FFB6B6;stop-opacity:1;" offset="1.0" id="stopFFB6B6" /></linearGradient><linearGradient xmlns:xlink="http://www.w3.org/1999/xlink" xlink:href="#linearGradientF8FBFEEDF5FCDEEDFAD4E7F8E2E5E9" id="linearGradientF8FBFEEDF5FCDEEDFAD4E7F8E2E5E9_764562543" x1="0" y1="240.0" x2="0" y2="346.0" gradientUnits="userSpaceOnUse" xlink:type="simple" xlink:actuate="onLoad" xlink:show="other" /><linearGradient xmlns:xlink="http://www.w3.org/1999/xlink" xlink:href="#linearGradientFAFBFCFFFFCC" id="linearGradientFAFBFCFFFFCC_692374581" x1="0" y1="417.0" x2="0" y2="477.0" gradientUnits="userSpaceOnUse" xlink:type="simple" xlink:actuate="onLoad" xlink:show="other" /><linearGradient xmlns:xlink="http://www.w3.org/1999/xlink" xlink:href="#linearGradientF8FBFEEDF5FCDEEDFAD4E7F8E2E5E9" id="linearGradientF8FBFEEDF5FCDEEDFAD4E7F8E2E5E9_1437232111" x1="0" y1="440.0" x2="0" y2="546.0" gradientUnits="userSpaceOnUse" xlink:type="simple" xlink:actuate="onLoad" xlink:show="other" /><linearGradient xmlns:xlink="http://www.w3.org/1999/xlink" xlink:href="#linearGradientFAFBFCFFFFCC" id="linearGradientFAFBFCFFFFCC_2025409115" x1="0" y1="424.0" x2="0" y2="484.0" gradientUnits="userSpaceOnUse" xlink:type="simple" xlink:actuate="onLoad" xlink:show="other" /><linearGradient xmlns:xlink="http://www.w3.org/1999/xlink" xlink:href="#linearGradientFF6666FF9696FFB6B6" id="linearGradientFF6666FF9696FFB6B6_1199013911" x1="0" y1="458.0" x2="0" y2="493.0" gradientUnits="userSpaceOnUse" xlink:type="simple" xlink:actuate="onLoad" xlink:show="other" /></defs></svg>
