<?xml version="1.0" encoding="UTF-8"?>
<svg xmlns="http://www.w3.org/2000/svg" style="stroke-dasharray:none; shape-rendering:auto; font-family:'Arial'; text-rendering:auto; fill-opacity:1; color-interpolation:auto; color-rendering:auto; font-size:12; fill:black; stroke:black; image-rendering:auto; stroke-miterlimit:10; stroke-linecap:square; stroke-linejoin:miter; font-style:normal; stroke-width:1; stroke-dashoffset:0; font-weight:normal; stroke-opacity:1;" contentScriptType="text/ecmascript" preserveAspectRatio="xMidYMid meet" zoomAndPan="magnify" version="1.0" contentStyleType="text/css" xml:xlink="http://www.w3.org/1999/xlink" width="1721" height="801"><rect x="30" y="590" width="1691" height="211" ry="0" rx="0" style="stroke:#000000; fill:#DFDFDF" /><g componentSequence="22"><text x="-695" y="37" transform="rotate(270)" text-anchor="middle" style="font-weight:bold;font-size:10px;stroke:none; fill:#434343"><tspan dy="14" x="-695">Aprovador</tspan></text></g><rect x="30" y="360" width="1691" height="231" ry="0" rx="0" style="stroke:#000000; fill:#C0C7CC" /><g componentSequence="2"><text x="-475" y="37" transform="rotate(270)" text-anchor="middle" style="font-weight:bold;font-size:10px;stroke:none; fill:#434343"><tspan dy="14" x="-475">Recursos Humanos</tspan></text></g><rect x="30" y="150" width="1691" height="211" ry="0" rx="0" style="stroke:#000000; fill:#DFDFDF" /><g componentSequence="1"><text x="-255" y="37" transform="rotate(270)" text-anchor="middle" style="font-weight:bold;font-size:10px;stroke:none; fill:#434343"><tspan dy="14" x="-255">Avaliador</tspan></text></g><g sequence="3"><ellipse cx="127" cy="475" rx="17" ry="17" stroke-width="1" style="fill:url(#linearGradient66FF6696FF96B6FFB6_742999302);" stroke="336633" /></g><g sequence="4"><rect x="870" y="660" width="106" height="70" ry="5" rx="5" style="fill:url(#linearGradientF8FBFEEDF5FCDEEDFAD4E7F8E2E5E9_579776255);" stroke="191970" /></g><g componentSequence="4"><text x="923" y="675" text-anchor="middle" style="font-weight:bold;font-size:10px;stroke:none; fill:#333399"><tspan dy="14" x="923">Aprovar</tspan><tspan dy="14" x="923">avaliação</tspan></text></g><g sequence="5"><polygon points=" 1070 674 1100 644 1130 674 1100 704 1070 674" style="fill:url(#linearGradientFAFBFCFFFFCC_649145974);" stroke="000000" /></g><g componentSequence="5"><text x="1100" y="714" text-anchor="middle" style="font-weight:bold;font-size:10px;stroke:none; fill:#333399"><tspan dy="14" x="1100">Aprovad</tspan><tspan dy="14" x="1100">a?</tspan></text></g><g sequence="7"><rect x="560" y="220" width="106" height="70" ry="5" rx="5" style="fill:url(#linearGradientF8FBFEEDF5FCDEEDFAD4E7F8E2E5E9_1672717508);" stroke="191970" /></g><g componentSequence="7"><text x="613" y="235" text-anchor="middle" style="font-weight:bold;font-size:10px;stroke:none; fill:#333399"><tspan dy="14" x="613">Avaliar</tspan><tspan dy="14" x="613">treinamento</tspan></text></g><g sequence="8"><polygon points=" 210 447 240 417 270 447 240 477 210 447" style="fill:url(#linearGradientFAFBFCFFFFCC_87342273);" stroke="000000" /></g><g componentSequence="8"><text x="240" y="487" text-anchor="middle" style="font-weight:bold;font-size:10px;stroke:none; fill:#333399"><tspan dy="14" x="240">Abertura</tspan><tspan dy="14" x="240">automáti</tspan><tspan dy="14" x="240">ca?</tspan></text></g><g sequence="9"><rect x="380" y="433" width="106" height="84" ry="5" rx="5" style="fill:url(#linearGradientF8FBFEEDF5FCDEEDFAD4E7F8E2E5E9_1385825230);" stroke="191970" /></g><g componentSequence="9"><text x="433" y="448" text-anchor="middle" style="font-weight:bold;font-size:10px;stroke:none; fill:#333399"><tspan dy="14" x="433">Atribuir</tspan><tspan dy="14" x="433">avaliador e</tspan><tspan dy="14" x="433">aprovador</tspan></text></g><g sequence="10"><polygon points=" 583 454 613 424 643 454 613 484 583 454" style="fill:url(#linearGradientFAFBFCFFFFCC_2113357173);" stroke="000000" /></g><g componentSequence="10"><text x="613" y="494" text-anchor="middle" style="font-weight:bold;font-size:10px;stroke:none; fill:#333399"><tspan dy="14" x="613">Participo</tspan><tspan dy="14" x="613">u?</tspan></text></g><g sequence="11"><ellipse cx="737" cy="475" rx="17" ry="17" stroke-width="3" style="fill:url(#linearGradientFF6666FF9696FFB6B6_60578699);" stroke="993333" /></g><g sequence="11"><polygon points=" 728 471 733 466 738 471 743 466 748 471 743 476 748 481 743 486 738 481 733 486 728 481 733 476" style="stroke:none; fill:#993333" /></g><g sequence="23"><rect x="1320" y="440" width="106" height="70" ry="5" rx="5" style="fill:url(#linearGradientF8FBFEEDF5FCDEEDFAD4E7F8E2E5E9_594423181);" stroke="191970" /></g><g componentSequence="23"><text x="1373" y="455" text-anchor="middle" style="font-weight:bold;font-size:10px;stroke:none; fill:#333399"><tspan dy="14" x="1373">Aprovar</tspan><tspan dy="14" x="1373">avaliação</tspan></text></g><g sequence="25"><polygon points=" 1520 454 1550 424 1580 454 1550 484 1520 454" style="fill:url(#linearGradientFAFBFCFFFFCC_568905309);" stroke="000000" /></g><g componentSequence="25"><text x="1550" y="494" text-anchor="middle" style="font-weight:bold;font-size:10px;stroke:none; fill:#333399"><tspan dy="14" x="1550">aprovad</tspan><tspan dy="14" x="1550">a?</tspan></text></g><g sequence="27"><ellipse cx="1667" cy="475" rx="17" ry="17" stroke-width="3" style="fill:url(#linearGradientFF6666FF9696FFB6B6_1727261688);" stroke="993333" /></g><g sequence="30"><polygon points=" 893 227 923 197 953 227 923 257 893 227" style="fill:url(#linearGradientFAFBFCFFFFCC_131245230);" stroke="000000" /></g><g componentSequence="30"><text x="923" y="267" text-anchor="middle" style="font-weight:bold;font-size:10px;stroke:none; fill:#333399"><tspan dy="14" x="923">Avaliado</tspan><tspan dy="14" x="923">r é o</tspan><tspan dy="14" x="923">apro...</tspan></text></g><g componentSequence="12"><text x="187" y="475" style="font-size:10px;font-weight:none;stroke:none; fill:#333399" text-anchor="left" /></g><g componentSequence="13"><text x="335" y="475" style="font-size:10px;font-weight:none;stroke:none; fill:#333399" text-anchor="left" /></g><g componentSequence="14"><text x="329" y="255" style="font-size:10px;font-weight:none;stroke:none; fill:#333399" text-anchor="left" /></g><g componentSequence="15"><text x="544" y="475" style="font-size:10px;font-weight:none;stroke:none; fill:#333399" text-anchor="left" /></g><g componentSequence="16"><text x="691" y="475" style="font-size:10px;font-weight:none;stroke:none; fill:#333399" text-anchor="left" /></g><g componentSequence="17"><text x="623" y="357" style="font-size:10px;font-weight:none;stroke:none; fill:#333399" text-anchor="left" /></g><g componentSequence="19"><text x="1033" y="695" style="font-size:10px;font-weight:none;stroke:none; fill:#333399" text-anchor="left" /></g><g componentSequence="21"><text x="1076" y="178" style="font-size:10px;font-weight:none;stroke:none; fill:#333399" text-anchor="left" /></g><g componentSequence="24"><text x="1352" y="693" style="font-size:10px;font-weight:none;stroke:none; fill:#333399" text-anchor="left" /></g><g componentSequence="26"><text x="1483" y="475" style="font-size:10px;font-weight:none;stroke:none; fill:#333399" text-anchor="left" /></g><g componentSequence="28"><text x="1625" y="475" style="font-size:10px;font-weight:none;stroke:none; fill:#333399" text-anchor="left" /></g><g componentSequence="29"><text x="1192" y="176" style="font-size:10px;font-weight:none;stroke:none; fill:#333399" text-anchor="left" /></g><g componentSequence="31"><text x="789" y="255" style="font-size:10px;font-weight:none;stroke:none; fill:#333399" text-anchor="left" /></g><g componentSequence="32"><text x="933" y="486" style="font-size:10px;font-weight:none;stroke:none; fill:#333399" text-anchor="left" /></g><g componentSequence="33"><text x="1223" y="252" style="font-size:10px;font-weight:none;stroke:none; fill:#333399" text-anchor="left" /></g><path style="fill:none; stroke:#000000;stroke-width:1" d="M145.0 475.0 L209.0 475.0" /><polygon style="fill:#000000; stroke:#000000;" points=" 199 470 209 475 199 480 201 475" /><path style="fill:none; stroke:#000000;stroke-width:1" d="M976.0 695.0 L1069.0 695.0" /><polygon style="fill:#000000; stroke:#000000;" points=" 1059 690 1069 695 1059 700 1061 695" /><path style="fill:none; stroke:#000000;stroke-width:1" d="M923.0 313.0 L923.0 659.0" /><polygon style="fill:#000000; stroke:#000000;" points=" 928 649 923 659 918 649 923 651" /><path style="fill:none; stroke:#000000;stroke-width:1" d="M1099.0 643.0 L1097.0 178.0 L612.0 177.0 L612.0 219.0" /><polygon style="fill:#000000; stroke:#000000;" points=" 617 209 612 219 607 209 612 211" /><path style="fill:none; stroke:#000000;stroke-width:1" d="M1130.0 694.0 L1372.0 693.0 L1372.0 510.0" /><polygon style="fill:#000000; stroke:#000000;" points=" 1367 520 1372 510 1377 520 1372 518" /><path style="fill:none; stroke:#000000;stroke-width:1" d="M666.0 255.0 L892.0 255.0" /><polygon style="fill:#000000; stroke:#000000;" points=" 882 250 892 255 882 260 884 255" /><path style="fill:none; stroke:#000000;stroke-width:1" d="M239.0 416.0 L239.0 255.0 L559.0 255.0" /><polygon style="fill:#000000; stroke:#000000;" points=" 549 250 559 255 549 260 551 255" /><path style="fill:none; stroke:#000000;stroke-width:1" d="M613.0 423.0 L613.0 290.0" /><polygon style="fill:#000000; stroke:#000000;" points=" 608 300 613 290 618 300 613 298" /><path style="fill:none; stroke:#000000;stroke-width:1" d="M1549.0 423.0 L1548.0 176.0 L1093.0 176.0 L612.0 176.0 L612.0 219.0" /><polygon style="fill:#000000; stroke:#000000;" points=" 617 209 612 219 607 209 612 211" /><path style="fill:none; stroke:#000000;stroke-width:1" d="M270.0 475.0 L379.0 475.0" /><polygon style="fill:#000000; stroke:#000000;" points=" 369 470 379 475 369 480 371 475" /><path style="fill:none; stroke:#000000;stroke-width:1" d="M486.0 475.0 L582.0 475.0" /><polygon style="fill:#000000; stroke:#000000;" points=" 572 470 582 475 572 480 574 475" /><path style="fill:none; stroke:#000000;stroke-width:1" d="M643.0 475.0 L719.0 475.0" /><polygon style="fill:#000000; stroke:#000000;" points=" 709 470 719 475 709 480 711 475" /><path style="fill:none; stroke:#000000;stroke-width:1" d="M1426.0 475.0 L1519.0 475.0" /><polygon style="fill:#000000; stroke:#000000;" points=" 1509 470 1519 475 1509 480 1511 475" /><path style="fill:none; stroke:#000000;stroke-width:1" d="M953.0 254.0 L1044.0 254.0 L1044.0 232.0 L1044.0 210.0 L1148.0 210.0 L1148.0 252.0 L1372.0 253.0 L1372.0 439.0" /><polygon style="fill:#000000; stroke:#000000;" points=" 1377 429 1372 439 1367 429 1372 431" /><path style="fill:none; stroke:#000000;stroke-width:1" d="M1580.0 475.0 L1649.0 475.0" /><polygon style="fill:#000000; stroke:#000000;" points=" 1639 470 1649 475 1639 480 1641 475" /><defs><linearGradient xmlns:xlink="http://www.w3.org/1999/xlink" xlink:href="#linearGradient66FF6696FF96B6FFB6" id="linearGradient66FF6696FF96B6FFB6_742999302" x1="0" y1="458.0" x2="0" y2="493.0" gradientUnits="userSpaceOnUse" xlink:type="simple" xlink:actuate="onLoad" xlink:show="other" /><linearGradient id="linearGradient66FF6696FF96B6FFB6"><stop style="stop-color:#66FF66;stop-opacity:1;" offset="0.0" id="stop66FF66" /><stop style="stop-color:#96FF96;stop-opacity:1;" offset="0.5" id="stop96FF96" /><stop style="stop-color:#B6FFB6;stop-opacity:1;" offset="1.0" id="stopB6FFB6" /></linearGradient><linearGradient xmlns:xlink="http://www.w3.org/1999/xlink" xlink:href="#linearGradientF8FBFEEDF5FCDEEDFAD4E7F8E2E5E9" id="linearGradientF8FBFEEDF5FCDEEDFAD4E7F8E2E5E9_579776255" x1="0" y1="660.0" x2="0" y2="766.0" gradientUnits="userSpaceOnUse" xlink:type="simple" xlink:actuate="onLoad" xlink:show="other" /><linearGradient id="linearGradientF8FBFEEDF5FCDEEDFAD4E7F8E2E5E9"><stop style="stop-color:#F8FBFE;stop-opacity:1;" offset="0.0" id="stopF8FBFE" /><stop style="stop-color:#EDF5FC;stop-opacity:1;" offset="0.25" id="stopEDF5FC" /><stop style="stop-color:#DEEDFA;stop-opacity:1;" offset="0.5" id="stopDEEDFA" /><stop style="stop-color:#D4E7F8;stop-opacity:1;" offset="0.75" id="stopD4E7F8" /><stop style="stop-color:#E2E5E9;stop-opacity:1;" offset="1.0" id="stopE2E5E9" /></linearGradient><linearGradient xmlns:xlink="http://www.w3.org/1999/xlink" xlink:href="#linearGradientFAFBFCFFFFCC" id="linearGradientFAFBFCFFFFCC_649145974" x1="0" y1="644.0" x2="0" y2="704.0" gradientUnits="userSpaceOnUse" xlink:type="simple" xlink:actuate="onLoad" xlink:show="other" /><linearGradient id="linearGradientFAFBFCFFFFCC"><stop style="stop-color:#FAFBFC;stop-opacity:1;" offset="0.0" id="stopFAFBFC" /><stop style="stop-color:#FFFFCC;stop-opacity:1;" offset="1.0" id="stopFFFFCC" /></linearGradient><linearGradient xmlns:xlink="http://www.w3.org/1999/xlink" xlink:href="#linearGradientF8FBFEEDF5FCDEEDFAD4E7F8E2E5E9" id="linearGradientF8FBFEEDF5FCDEEDFAD4E7F8E2E5E9_1672717508" x1="0" y1="220.0" x2="0" y2="326.0" gradientUnits="userSpaceOnUse" xlink:type="simple" xlink:actuate="onLoad" xlink:show="other" /><linearGradient xmlns:xlink="http://www.w3.org/1999/xlink" xlink:href="#linearGradientFAFBFCFFFFCC" id="linearGradientFAFBFCFFFFCC_87342273" x1="0" y1="417.0" x2="0" y2="477.0" gradientUnits="userSpaceOnUse" xlink:type="simple" xlink:actuate="onLoad" xlink:show="other" /><linearGradient xmlns:xlink="http://www.w3.org/1999/xlink" xlink:href="#linearGradientF8FBFEEDF5FCDEEDFAD4E7F8E2E5E9" id="linearGradientF8FBFEEDF5FCDEEDFAD4E7F8E2E5E9_1385825230" x1="0" y1="433.0" x2="0" y2="539.0" gradientUnits="userSpaceOnUse" xlink:type="simple" xlink:actuate="onLoad" xlink:show="other" /><linearGradient xmlns:xlink="http://www.w3.org/1999/xlink" xlink:href="#linearGradientFAFBFCFFFFCC" id="linearGradientFAFBFCFFFFCC_2113357173" x1="0" y1="424.0" x2="0" y2="484.0" gradientUnits="userSpaceOnUse" xlink:type="simple" xlink:actuate="onLoad" xlink:show="other" /><linearGradient xmlns:xlink="http://www.w3.org/1999/xlink" xlink:href="#linearGradientFF6666FF9696FFB6B6" id="linearGradientFF6666FF9696FFB6B6_60578699" x1="0" y1="458.0" x2="0" y2="493.0" gradientUnits="userSpaceOnUse" xlink:type="simple" xlink:actuate="onLoad" xlink:show="other" /><linearGradient id="linearGradientFF6666FF9696FFB6B6"><stop style="stop-color:#FF6666;stop-opacity:1;" offset="0.0" id="stopFF6666" /><stop style="stop-color:#FF9696;stop-opacity:1;" offset="0.5" id="stopFF9696" /><stop style="stop-color:#FFB6B6;stop-opacity:1;" offset="1.0" id="stopFFB6B6" /></linearGradient><linearGradient xmlns:xlink="http://www.w3.org/1999/xlink" xlink:href="#linearGradientF8FBFEEDF5FCDEEDFAD4E7F8E2E5E9" id="linearGradientF8FBFEEDF5FCDEEDFAD4E7F8E2E5E9_594423181" x1="0" y1="440.0" x2="0" y2="546.0" gradientUnits="userSpaceOnUse" xlink:type="simple" xlink:actuate="onLoad" xlink:show="other" /><linearGradient xmlns:xlink="http://www.w3.org/1999/xlink" xlink:href="#linearGradientFAFBFCFFFFCC" id="linearGradientFAFBFCFFFFCC_568905309" x1="0" y1="424.0" x2="0" y2="484.0" gradientUnits="userSpaceOnUse" xlink:type="simple" xlink:actuate="onLoad" xlink:show="other" /><linearGradient xmlns:xlink="http://www.w3.org/1999/xlink" xlink:href="#linearGradientFF6666FF9696FFB6B6" id="linearGradientFF6666FF9696FFB6B6_1727261688" x1="0" y1="458.0" x2="0" y2="493.0" gradientUnits="userSpaceOnUse" xlink:type="simple" xlink:actuate="onLoad" xlink:show="other" /><linearGradient xmlns:xlink="http://www.w3.org/1999/xlink" xlink:href="#linearGradientFAFBFCFFFFCC" id="linearGradientFAFBFCFFFFCC_131245230" x1="0" y1="197.0" x2="0" y2="257.0" gradientUnits="userSpaceOnUse" xlink:type="simple" xlink:actuate="onLoad" xlink:show="other" /></defs></svg>
