<?xml version="1.0" encoding="UTF-8"?>
<svg xmlns="http://www.w3.org/2000/svg" style="stroke-dasharray:none; shape-rendering:auto; font-family:'Arial'; text-rendering:auto; fill-opacity:1; color-interpolation:auto; color-rendering:auto; font-size:12; fill:black; stroke:black; image-rendering:auto; stroke-miterlimit:10; stroke-linecap:square; stroke-linejoin:miter; font-style:normal; stroke-width:1; stroke-dashoffset:0; font-weight:normal; stroke-opacity:1;" contentScriptType="text/ecmascript" preserveAspectRatio="xMidYMid meet" zoomAndPan="magnify" version="1.0" contentStyleType="text/css" xml:xlink="http://www.w3.org/1999/xlink" width="1291" height="591"><rect x="30" y="360" width="1261" height="231" ry="0" rx="0" style="stroke:#000000; fill:#C0C7CC" /><g componentSequence="2"><text x="-475" y="37" transform="rotate(270)" text-anchor="middle" style="font-weight:bold;font-size:10px;stroke:none; fill:#434343"><tspan dy="14" x="-475">Recursos Humanos</tspan></text></g><rect x="30" y="150" width="1261" height="211" ry="0" rx="0" style="stroke:#000000; fill:#DFDFDF" /><g componentSequence="1"><text x="-255" y="37" transform="rotate(270)" text-anchor="middle" style="font-weight:bold;font-size:10px;stroke:none; fill:#434343"><tspan dy="14" x="-255">Avaliador</tspan></text></g><g sequence="3"><ellipse cx="127" cy="475" rx="17" ry="17" stroke-width="1" style="fill:url(#linearGradient66FF6696FF96B6FFB6_1665928067);" stroke="336633" /></g><g sequence="4"><rect x="870" y="440" width="106" height="70" ry="5" rx="5" style="fill:url(#linearGradientF8FBFEEDF5FCDEEDFAD4E7F8E2E5E9_1837885850);" stroke="191970" /></g><g componentSequence="4"><text x="923" y="455" text-anchor="middle" style="font-weight:bold;font-size:10px;stroke:none; fill:#333399"><tspan dy="14" x="923">Aprovar</tspan><tspan dy="14" x="923">avaliação</tspan></text></g><g sequence="5"><polygon points=" 1070 454 1100 424 1130 454 1100 484 1070 454" style="fill:url(#linearGradientFAFBFCFFFFCC_1773428979);" stroke="000000" /></g><g componentSequence="5"><text x="1100" y="494" text-anchor="middle" style="font-weight:bold;font-size:10px;stroke:none; fill:#333399"><tspan dy="14" x="1100">Aprovad</tspan><tspan dy="14" x="1100">a?</tspan></text></g><g sequence="6"><ellipse cx="1217" cy="475" rx="17" ry="17" stroke-width="3" style="fill:url(#linearGradientFF6666FF9696FFB6B6_750183329);" stroke="993333" /></g><g sequence="7"><rect x="560" y="240" width="106" height="70" ry="5" rx="5" style="fill:url(#linearGradientF8FBFEEDF5FCDEEDFAD4E7F8E2E5E9_791012775);" stroke="191970" /></g><g componentSequence="7"><text x="613" y="255" text-anchor="middle" style="font-weight:bold;font-size:10px;stroke:none; fill:#333399"><tspan dy="14" x="613">Avaliar</tspan><tspan dy="14" x="613">treinamento</tspan></text></g><g sequence="8"><polygon points=" 210 447 240 417 270 447 240 477 210 447" style="fill:url(#linearGradientFAFBFCFFFFCC_500174560);" stroke="000000" /></g><g componentSequence="8"><text x="240" y="487" text-anchor="middle" style="font-weight:bold;font-size:10px;stroke:none; fill:#333399"><tspan dy="14" x="240">Abertura</tspan><tspan dy="14" x="240">automáti</tspan><tspan dy="14" x="240">ca?</tspan></text></g><g sequence="9"><rect x="380" y="440" width="106" height="70" ry="5" rx="5" style="fill:url(#linearGradientF8FBFEEDF5FCDEEDFAD4E7F8E2E5E9_1470715473);" stroke="191970" /></g><g componentSequence="9"><text x="433" y="455" text-anchor="middle" style="font-weight:bold;font-size:10px;stroke:none; fill:#333399"><tspan dy="14" x="433">Atribuir</tspan><tspan dy="14" x="433">avaliador</tspan></text></g><g sequence="10"><polygon points=" 583 454 613 424 643 454 613 484 583 454" style="fill:url(#linearGradientFAFBFCFFFFCC_1285102830);" stroke="000000" /></g><g componentSequence="10"><text x="613" y="494" text-anchor="middle" style="font-weight:bold;font-size:10px;stroke:none; fill:#333399"><tspan dy="14" x="613">Participo</tspan><tspan dy="14" x="613">u?</tspan></text></g><g sequence="11"><ellipse cx="737" cy="475" rx="17" ry="17" stroke-width="3" style="fill:url(#linearGradientFF6666FF9696FFB6B6_1276235783);" stroke="993333" /></g><g sequence="11"><polygon points=" 728 471 733 466 738 471 743 466 748 471 743 476 748 481 743 486 738 481 733 486 728 481 733 476" style="stroke:none; fill:#993333" /></g><g componentSequence="12"><text x="187" y="475" style="font-size:10px;font-weight:none;stroke:none; fill:#333399" text-anchor="left" /></g><g componentSequence="13"><text x="335" y="475" style="font-size:10px;font-weight:none;stroke:none; fill:#333399" text-anchor="left" /></g><g componentSequence="14"><text x="338" y="273" style="font-size:10px;font-weight:none;stroke:none; fill:#333399" text-anchor="left" /></g><g componentSequence="15"><text x="544" y="475" style="font-size:10px;font-weight:none;stroke:none; fill:#333399" text-anchor="left" /></g><g componentSequence="16"><text x="691" y="475" style="font-size:10px;font-weight:none;stroke:none; fill:#333399" text-anchor="left" /></g><g componentSequence="17"><text x="623" y="367" style="font-size:10px;font-weight:none;stroke:none; fill:#333399" text-anchor="left" /></g><g componentSequence="18"><text x="887" y="275" style="font-size:10px;font-weight:none;stroke:none; fill:#333399" text-anchor="left" /></g><g componentSequence="19"><text x="1033" y="475" style="font-size:10px;font-weight:none;stroke:none; fill:#333399" text-anchor="left" /></g><g componentSequence="20"><text x="1175" y="475" style="font-size:10px;font-weight:none;stroke:none; fill:#333399" text-anchor="left" /></g><g componentSequence="21"><text x="959" y="179" style="font-size:10px;font-weight:none;stroke:none; fill:#333399" text-anchor="left" /></g><path style="fill:none; stroke:#000000;stroke-width:1" d="M145.0 475.0 L209.0 475.0" /><polygon style="fill:#000000; stroke:#000000;" points=" 199 470 209 475 199 480 201 475" /><path style="fill:none; stroke:#000000;stroke-width:1" d="M976.0 475.0 L1069.0 475.0" /><polygon style="fill:#000000; stroke:#000000;" points=" 1059 470 1069 475 1059 480 1061 475" /><path style="fill:none; stroke:#000000;stroke-width:1" d="M666.0 275.0 L923.0 275.0 L923.0 439.0" /><polygon style="fill:#000000; stroke:#000000;" points=" 928 429 923 439 918 429 923 431" /><path style="fill:none; stroke:#000000;stroke-width:1" d="M1130.0 475.0 L1199.0 475.0" /><polygon style="fill:#000000; stroke:#000000;" points=" 1189 470 1199 475 1189 480 1191 475" /><path style="fill:none; stroke:#000000;stroke-width:1" d="M1100.0 423.0 L1100.0 179.0 L613.0 179.0 L613.0 239.0" /><polygon style="fill:#000000; stroke:#000000;" points=" 618 229 613 239 608 229 613 231" /><path style="fill:none; stroke:#000000;stroke-width:1" d="M239.0 416.0 L239.0 273.0 L559.0 274.0" /><polygon style="fill:#000000; stroke:#000000;" points=" 549 269 559 274 549 279 551 274" /><path style="fill:none; stroke:#000000;stroke-width:1" d="M613.0 423.0 L613.0 310.0" /><polygon style="fill:#000000; stroke:#000000;" points=" 608 320 613 310 618 320 613 318" /><path style="fill:none; stroke:#000000;stroke-width:1" d="M270.0 475.0 L379.0 475.0" /><polygon style="fill:#000000; stroke:#000000;" points=" 369 470 379 475 369 480 371 475" /><path style="fill:none; stroke:#000000;stroke-width:1" d="M486.0 475.0 L582.0 475.0" /><polygon style="fill:#000000; stroke:#000000;" points=" 572 470 582 475 572 480 574 475" /><path style="fill:none; stroke:#000000;stroke-width:1" d="M643.0 475.0 L719.0 475.0" /><polygon style="fill:#000000; stroke:#000000;" points=" 709 470 719 475 709 480 711 475" /><defs><linearGradient xmlns:xlink="http://www.w3.org/1999/xlink" xlink:href="#linearGradient66FF6696FF96B6FFB6" id="linearGradient66FF6696FF96B6FFB6_1665928067" x1="0" y1="458.0" x2="0" y2="493.0" gradientUnits="userSpaceOnUse" xlink:type="simple" xlink:actuate="onLoad" xlink:show="other" /><linearGradient id="linearGradient66FF6696FF96B6FFB6"><stop style="stop-color:#66FF66;stop-opacity:1;" offset="0.0" id="stop66FF66" /><stop style="stop-color:#96FF96;stop-opacity:1;" offset="0.5" id="stop96FF96" /><stop style="stop-color:#B6FFB6;stop-opacity:1;" offset="1.0" id="stopB6FFB6" /></linearGradient><linearGradient xmlns:xlink="http://www.w3.org/1999/xlink" xlink:href="#linearGradientF8FBFEEDF5FCDEEDFAD4E7F8E2E5E9" id="linearGradientF8FBFEEDF5FCDEEDFAD4E7F8E2E5E9_1837885850" x1="0" y1="440.0" x2="0" y2="546.0" gradientUnits="userSpaceOnUse" xlink:type="simple" xlink:actuate="onLoad" xlink:show="other" /><linearGradient id="linearGradientF8FBFEEDF5FCDEEDFAD4E7F8E2E5E9"><stop style="stop-color:#F8FBFE;stop-opacity:1;" offset="0.0" id="stopF8FBFE" /><stop style="stop-color:#EDF5FC;stop-opacity:1;" offset="0.25" id="stopEDF5FC" /><stop style="stop-color:#DEEDFA;stop-opacity:1;" offset="0.5" id="stopDEEDFA" /><stop style="stop-color:#D4E7F8;stop-opacity:1;" offset="0.75" id="stopD4E7F8" /><stop style="stop-color:#E2E5E9;stop-opacity:1;" offset="1.0" id="stopE2E5E9" /></linearGradient><linearGradient xmlns:xlink="http://www.w3.org/1999/xlink" xlink:href="#linearGradientFAFBFCFFFFCC" id="linearGradientFAFBFCFFFFCC_1773428979" x1="0" y1="424.0" x2="0" y2="484.0" gradientUnits="userSpaceOnUse" xlink:type="simple" xlink:actuate="onLoad" xlink:show="other" /><linearGradient id="linearGradientFAFBFCFFFFCC"><stop style="stop-color:#FAFBFC;stop-opacity:1;" offset="0.0" id="stopFAFBFC" /><stop style="stop-color:#FFFFCC;stop-opacity:1;" offset="1.0" id="stopFFFFCC" /></linearGradient><linearGradient xmlns:xlink="http://www.w3.org/1999/xlink" xlink:href="#linearGradientFF6666FF9696FFB6B6" id="linearGradientFF6666FF9696FFB6B6_750183329" x1="0" y1="458.0" x2="0" y2="493.0" gradientUnits="userSpaceOnUse" xlink:type="simple" xlink:actuate="onLoad" xlink:show="other" /><linearGradient id="linearGradientFF6666FF9696FFB6B6"><stop style="stop-color:#FF6666;stop-opacity:1;" offset="0.0" id="stopFF6666" /><stop style="stop-color:#FF9696;stop-opacity:1;" offset="0.5" id="stopFF9696" /><stop style="stop-color:#FFB6B6;stop-opacity:1;" offset="1.0" id="stopFFB6B6" /></linearGradient><linearGradient xmlns:xlink="http://www.w3.org/1999/xlink" xlink:href="#linearGradientF8FBFEEDF5FCDEEDFAD4E7F8E2E5E9" id="linearGradientF8FBFEEDF5FCDEEDFAD4E7F8E2E5E9_791012775" x1="0" y1="240.0" x2="0" y2="346.0" gradientUnits="userSpaceOnUse" xlink:type="simple" xlink:actuate="onLoad" xlink:show="other" /><linearGradient xmlns:xlink="http://www.w3.org/1999/xlink" xlink:href="#linearGradientFAFBFCFFFFCC" id="linearGradientFAFBFCFFFFCC_500174560" x1="0" y1="417.0" x2="0" y2="477.0" gradientUnits="userSpaceOnUse" xlink:type="simple" xlink:actuate="onLoad" xlink:show="other" /><linearGradient xmlns:xlink="http://www.w3.org/1999/xlink" xlink:href="#linearGradientF8FBFEEDF5FCDEEDFAD4E7F8E2E5E9" id="linearGradientF8FBFEEDF5FCDEEDFAD4E7F8E2E5E9_1470715473" x1="0" y1="440.0" x2="0" y2="546.0" gradientUnits="userSpaceOnUse" xlink:type="simple" xlink:actuate="onLoad" xlink:show="other" /><linearGradient xmlns:xlink="http://www.w3.org/1999/xlink" xlink:href="#linearGradientFAFBFCFFFFCC" id="linearGradientFAFBFCFFFFCC_1285102830" x1="0" y1="424.0" x2="0" y2="484.0" gradientUnits="userSpaceOnUse" xlink:type="simple" xlink:actuate="onLoad" xlink:show="other" /><linearGradient xmlns:xlink="http://www.w3.org/1999/xlink" xlink:href="#linearGradientFF6666FF9696FFB6B6" id="linearGradientFF6666FF9696FFB6B6_1276235783" x1="0" y1="458.0" x2="0" y2="493.0" gradientUnits="userSpaceOnUse" xlink:type="simple" xlink:actuate="onLoad" xlink:show="other" /></defs></svg>
