<?xml version="1.0" encoding="UTF-8"?>
<svg xmlns="http://www.w3.org/2000/svg" style="stroke-dasharray:none; shape-rendering:auto; font-family:'Arial'; text-rendering:auto; fill-opacity:1; color-interpolation:auto; color-rendering:auto; font-size:12; fill:black; stroke:black; image-rendering:auto; stroke-miterlimit:10; stroke-linecap:square; stroke-linejoin:miter; font-style:normal; stroke-width:1; stroke-dashoffset:0; font-weight:normal; stroke-opacity:1;" contentScriptType="text/ecmascript" preserveAspectRatio="xMidYMid meet" zoomAndPan="magnify" version="1.0" contentStyleType="text/css" xml:xlink="http://www.w3.org/1999/xlink" width="1721" height="801"><rect x="30" y="590" width="1691" height="211" ry="0" rx="0" style="stroke:#000000; fill:#DFDFDF" /><g componentSequence="22"><text x="-695" y="37" transform="rotate(270)" text-anchor="middle" style="font-weight:bold;font-size:10px;stroke:none; fill:#434343"><tspan dy="14" x="-695">Gerência Área</tspan></text></g><rect x="30" y="360" width="1691" height="231" ry="0" rx="0" style="stroke:#000000; fill:#C0C7CC" /><g componentSequence="2"><text x="-475" y="37" transform="rotate(270)" text-anchor="middle" style="font-weight:bold;font-size:10px;stroke:none; fill:#434343"><tspan dy="14" x="-475">Recursos Humanos</tspan></text></g><rect x="30" y="150" width="1691" height="211" ry="0" rx="0" style="stroke:#000000; fill:#DFDFDF" /><g componentSequence="1"><text x="-255" y="37" transform="rotate(270)" text-anchor="middle" style="font-weight:bold;font-size:10px;stroke:none; fill:#434343"><tspan dy="14" x="-255">Avaliador</tspan></text></g><g sequence="3"><ellipse cx="127" cy="475" rx="17" ry="17" stroke-width="1" style="fill:url(#linearGradient66FF6696FF96B6FFB6_1524621859);" stroke="336633" /></g><g sequence="4"><rect x="870" y="660" width="106" height="70" ry="5" rx="5" style="fill:url(#linearGradientF8FBFEEDF5FCDEEDFAD4E7F8E2E5E9_1410864904);" stroke="191970" /></g><g componentSequence="4"><text x="923" y="675" text-anchor="middle" style="font-weight:bold;font-size:10px;stroke:none; fill:#333399"><tspan dy="14" x="923">Tomar</tspan><tspan dy="14" x="923">conhecimento</tspan></text></g><g sequence="7"><rect x="560" y="220" width="106" height="70" ry="5" rx="5" style="fill:url(#linearGradientF8FBFEEDF5FCDEEDFAD4E7F8E2E5E9_1344768339);" stroke="191970" /></g><g componentSequence="7"><text x="613" y="235" text-anchor="middle" style="font-weight:bold;font-size:10px;stroke:none; fill:#333399"><tspan dy="14" x="613">Avaliar</tspan><tspan dy="14" x="613">treinamento</tspan></text></g><g sequence="8"><polygon points=" 210 447 240 417 270 447 240 477 210 447" style="fill:url(#linearGradientFAFBFCFFFFCC_354753843);" stroke="000000" /></g><g componentSequence="8"><text x="240" y="487" text-anchor="middle" style="font-weight:bold;font-size:10px;stroke:none; fill:#333399"><tspan dy="14" x="240">Abertura</tspan><tspan dy="14" x="240">automáti</tspan><tspan dy="14" x="240">ca?</tspan></text></g><g sequence="9"><rect x="380" y="433" width="106" height="84" ry="5" rx="5" style="fill:url(#linearGradientF8FBFEEDF5FCDEEDFAD4E7F8E2E5E9_810433358);" stroke="191970" /></g><g componentSequence="9"><text x="433" y="448" text-anchor="middle" style="font-weight:bold;font-size:10px;stroke:none; fill:#333399"><tspan dy="14" x="433">Atribuir</tspan><tspan dy="14" x="433">avaliador e</tspan><tspan dy="14" x="433">aprovador</tspan></text></g><g sequence="10"><polygon points=" 583 454 613 424 643 454 613 484 583 454" style="fill:url(#linearGradientFAFBFCFFFFCC_620415512);" stroke="000000" /></g><g componentSequence="10"><text x="613" y="494" text-anchor="middle" style="font-weight:bold;font-size:10px;stroke:none; fill:#333399"><tspan dy="14" x="613">Participo</tspan><tspan dy="14" x="613">u?</tspan></text></g><g sequence="11"><ellipse cx="737" cy="475" rx="17" ry="17" stroke-width="3" style="fill:url(#linearGradientFF6666FF9696FFB6B6_1216066245);" stroke="993333" /></g><g sequence="11"><polygon points=" 728 471 733 466 738 471 743 466 748 471 743 476 748 481 743 486 738 481 733 486 728 481 733 476" style="stroke:none; fill:#993333" /></g><g sequence="23"><rect x="1320" y="440" width="106" height="70" ry="5" rx="5" style="fill:url(#linearGradientF8FBFEEDF5FCDEEDFAD4E7F8E2E5E9_1963647612);" stroke="191970" /></g><g componentSequence="23"><text x="1373" y="455" text-anchor="middle" style="font-weight:bold;font-size:10px;stroke:none; fill:#333399"><tspan dy="14" x="1373">Aprovar</tspan><tspan dy="14" x="1373">avaliação</tspan></text></g><g sequence="25"><polygon points=" 1520 454 1550 424 1580 454 1550 484 1520 454" style="fill:url(#linearGradientFAFBFCFFFFCC_887043032);" stroke="000000" /></g><g componentSequence="25"><text x="1550" y="494" text-anchor="middle" style="font-weight:bold;font-size:10px;stroke:none; fill:#333399"><tspan dy="14" x="1550">aprovad</tspan><tspan dy="14" x="1550">a?</tspan></text></g><g sequence="27"><ellipse cx="1667" cy="475" rx="17" ry="17" stroke-width="3" style="fill:url(#linearGradientFF6666FF9696FFB6B6_1183290705);" stroke="993333" /></g><g componentSequence="12"><text x="187" y="475" style="font-size:10px;font-weight:none;stroke:none; fill:#333399" text-anchor="left" /></g><g componentSequence="13"><text x="335" y="475" style="font-size:10px;font-weight:none;stroke:none; fill:#333399" text-anchor="left" /></g><g componentSequence="14"><text x="329" y="255" style="font-size:10px;font-weight:none;stroke:none; fill:#333399" text-anchor="left" /></g><g componentSequence="15"><text x="544" y="475" style="font-size:10px;font-weight:none;stroke:none; fill:#333399" text-anchor="left" /></g><g componentSequence="16"><text x="691" y="475" style="font-size:10px;font-weight:none;stroke:none; fill:#333399" text-anchor="left" /></g><g componentSequence="17"><text x="623" y="357" style="font-size:10px;font-weight:none;stroke:none; fill:#333399" text-anchor="left" /></g><g componentSequence="30"><text x="930" y="329" style="font-size:10px;font-weight:none;stroke:none; fill:#333399" text-anchor="left" /></g><g componentSequence="26"><text x="1483" y="475" style="font-size:10px;font-weight:none;stroke:none; fill:#333399" text-anchor="left" /></g><g componentSequence="31"><text x="1275" y="693" style="font-size:10px;font-weight:none;stroke:none; fill:#333399" text-anchor="left" /></g><g componentSequence="28"><text x="1625" y="475" style="font-size:10px;font-weight:none;stroke:none; fill:#333399" text-anchor="left" /></g><g componentSequence="29"><text x="1192" y="176" style="font-size:10px;font-weight:none;stroke:none; fill:#333399" text-anchor="left" /></g><path style="fill:none; stroke:#000000;stroke-width:1" d="M145.0 474.0 L208.0 474.0" /><polygon style="fill:#000000; stroke:#000000;" points=" 198 469 208 474 198 479 200 474" /><path style="fill:none; stroke:#000000;stroke-width:1" d="M238.0 416.0 L239.0 255.0 L558.0 254.0" /><polygon style="fill:#000000; stroke:#000000;" points=" 548 249 558 254 548 259 550 254" /><path style="fill:none; stroke:#000000;stroke-width:1" d="M612.0 422.0 L612.0 290.0" /><polygon style="fill:#000000; stroke:#000000;" points=" 607 300 612 290 617 300 612 298" /><path style="fill:none; stroke:#000000;stroke-width:1" d="M1549.0 422.0 L1548.0 176.0 L1093.0 176.0 L612.0 176.0 L612.0 218.0" /><polygon style="fill:#000000; stroke:#000000;" points=" 617 208 612 218 607 208 612 210" /><path style="fill:none; stroke:#000000;stroke-width:1" d="M270.0 474.0 L378.0 474.0" /><polygon style="fill:#000000; stroke:#000000;" points=" 368 469 378 474 368 479 370 474" /><path style="fill:none; stroke:#000000;stroke-width:1" d="M486.0 474.0 L581.0 474.0" /><polygon style="fill:#000000; stroke:#000000;" points=" 571 469 581 474 571 479 573 474" /><path style="fill:none; stroke:#000000;stroke-width:1" d="M644.0 474.0 L718.0 474.0" /><polygon style="fill:#000000; stroke:#000000;" points=" 708 469 718 474 708 479 710 474" /><path style="fill:none; stroke:#000000;stroke-width:1" d="M1426.0 474.0 L1518.0 474.0" /><polygon style="fill:#000000; stroke:#000000;" points=" 1508 469 1518 474 1508 479 1510 474" /><path style="fill:none; stroke:#000000;stroke-width:1" d="M1580.0 474.0 L1648.0 474.0" /><polygon style="fill:#000000; stroke:#000000;" points=" 1638 469 1648 474 1638 479 1640 474" /><path style="fill:none; stroke:#000000;stroke-width:1" d="M666.0 254.0 L920.0 253.0 L921.0 658.0" /><polygon style="fill:#000000; stroke:#000000;" points=" 926 648 921 658 916 648 921 650" /><path style="fill:none; stroke:#000000;stroke-width:1" d="M976.0 694.0 L1372.0 693.0 L1372.0 510.0" /><polygon style="fill:#000000; stroke:#000000;" points=" 1367 520 1372 510 1377 520 1372 518" /><defs><linearGradient xmlns:xlink="http://www.w3.org/1999/xlink" xlink:href="#linearGradient66FF6696FF96B6FFB6" id="linearGradient66FF6696FF96B6FFB6_1524621859" x1="0" y1="458.0" x2="0" y2="493.0" gradientUnits="userSpaceOnUse" xlink:type="simple" xlink:actuate="onLoad" xlink:show="other" /><linearGradient id="linearGradient66FF6696FF96B6FFB6"><stop style="stop-color:#66FF66;stop-opacity:1;" offset="0.0" id="stop66FF66" /><stop style="stop-color:#96FF96;stop-opacity:1;" offset="0.5" id="stop96FF96" /><stop style="stop-color:#B6FFB6;stop-opacity:1;" offset="1.0" id="stopB6FFB6" /></linearGradient><linearGradient xmlns:xlink="http://www.w3.org/1999/xlink" xlink:href="#linearGradientF8FBFEEDF5FCDEEDFAD4E7F8E2E5E9" id="linearGradientF8FBFEEDF5FCDEEDFAD4E7F8E2E5E9_1410864904" x1="0" y1="660.0" x2="0" y2="766.0" gradientUnits="userSpaceOnUse" xlink:type="simple" xlink:actuate="onLoad" xlink:show="other" /><linearGradient id="linearGradientF8FBFEEDF5FCDEEDFAD4E7F8E2E5E9"><stop style="stop-color:#F8FBFE;stop-opacity:1;" offset="0.0" id="stopF8FBFE" /><stop style="stop-color:#EDF5FC;stop-opacity:1;" offset="0.25" id="stopEDF5FC" /><stop style="stop-color:#DEEDFA;stop-opacity:1;" offset="0.5" id="stopDEEDFA" /><stop style="stop-color:#D4E7F8;stop-opacity:1;" offset="0.75" id="stopD4E7F8" /><stop style="stop-color:#E2E5E9;stop-opacity:1;" offset="1.0" id="stopE2E5E9" /></linearGradient><linearGradient xmlns:xlink="http://www.w3.org/1999/xlink" xlink:href="#linearGradientF8FBFEEDF5FCDEEDFAD4E7F8E2E5E9" id="linearGradientF8FBFEEDF5FCDEEDFAD4E7F8E2E5E9_1344768339" x1="0" y1="220.0" x2="0" y2="326.0" gradientUnits="userSpaceOnUse" xlink:type="simple" xlink:actuate="onLoad" xlink:show="other" /><linearGradient xmlns:xlink="http://www.w3.org/1999/xlink" xlink:href="#linearGradientFAFBFCFFFFCC" id="linearGradientFAFBFCFFFFCC_354753843" x1="0" y1="417.0" x2="0" y2="477.0" gradientUnits="userSpaceOnUse" xlink:type="simple" xlink:actuate="onLoad" xlink:show="other" /><linearGradient id="linearGradientFAFBFCFFFFCC"><stop style="stop-color:#FAFBFC;stop-opacity:1;" offset="0.0" id="stopFAFBFC" /><stop style="stop-color:#FFFFCC;stop-opacity:1;" offset="1.0" id="stopFFFFCC" /></linearGradient><linearGradient xmlns:xlink="http://www.w3.org/1999/xlink" xlink:href="#linearGradientF8FBFEEDF5FCDEEDFAD4E7F8E2E5E9" id="linearGradientF8FBFEEDF5FCDEEDFAD4E7F8E2E5E9_810433358" x1="0" y1="433.0" x2="0" y2="539.0" gradientUnits="userSpaceOnUse" xlink:type="simple" xlink:actuate="onLoad" xlink:show="other" /><linearGradient xmlns:xlink="http://www.w3.org/1999/xlink" xlink:href="#linearGradientFAFBFCFFFFCC" id="linearGradientFAFBFCFFFFCC_620415512" x1="0" y1="424.0" x2="0" y2="484.0" gradientUnits="userSpaceOnUse" xlink:type="simple" xlink:actuate="onLoad" xlink:show="other" /><linearGradient xmlns:xlink="http://www.w3.org/1999/xlink" xlink:href="#linearGradientFF6666FF9696FFB6B6" id="linearGradientFF6666FF9696FFB6B6_1216066245" x1="0" y1="458.0" x2="0" y2="493.0" gradientUnits="userSpaceOnUse" xlink:type="simple" xlink:actuate="onLoad" xlink:show="other" /><linearGradient id="linearGradientFF6666FF9696FFB6B6"><stop style="stop-color:#FF6666;stop-opacity:1;" offset="0.0" id="stopFF6666" /><stop style="stop-color:#FF9696;stop-opacity:1;" offset="0.5" id="stopFF9696" /><stop style="stop-color:#FFB6B6;stop-opacity:1;" offset="1.0" id="stopFFB6B6" /></linearGradient><linearGradient xmlns:xlink="http://www.w3.org/1999/xlink" xlink:href="#linearGradientF8FBFEEDF5FCDEEDFAD4E7F8E2E5E9" id="linearGradientF8FBFEEDF5FCDEEDFAD4E7F8E2E5E9_1963647612" x1="0" y1="440.0" x2="0" y2="546.0" gradientUnits="userSpaceOnUse" xlink:type="simple" xlink:actuate="onLoad" xlink:show="other" /><linearGradient xmlns:xlink="http://www.w3.org/1999/xlink" xlink:href="#linearGradientFAFBFCFFFFCC" id="linearGradientFAFBFCFFFFCC_887043032" x1="0" y1="424.0" x2="0" y2="484.0" gradientUnits="userSpaceOnUse" xlink:type="simple" xlink:actuate="onLoad" xlink:show="other" /><linearGradient xmlns:xlink="http://www.w3.org/1999/xlink" xlink:href="#linearGradientFF6666FF9696FFB6B6" id="linearGradientFF6666FF9696FFB6B6_1183290705" x1="0" y1="458.0" x2="0" y2="493.0" gradientUnits="userSpaceOnUse" xlink:type="simple" xlink:actuate="onLoad" xlink:show="other" /></defs></svg>
